<svg width="33" height="34" viewBox="0 0 33 34" fill="none" xmlns="http://www.w3.org/2000/svg">
<rect width="33" height="34" fill="#ABABAB"/>
<g clip-path="url(#clip0_1_3)">
<rect width="1440" height="5879" transform="translate(-205 -4952)" fill="black"/>
<g filter="url(#filter0_f_1_3)">
<ellipse cx="-205.4" cy="-228.023" rx="136.6" ry="139.977" fill="#00A3FF"/>
</g>
<rect x="-32" y="-31.489" width="397.982" height="352" rx="12" fill="#33A7F9" fill-opacity="0.1"/>
<circle cx="16.5" cy="17.011" r="16.5" fill="white" fill-opacity="0.24"/>
<path d="M26 11.511C26 10.411 25.1 9.51099 24 9.51099H8C6.9 9.51099 6 10.411 6 11.511V23.511C6 24.611 6.9 25.511 8 25.511H24C25.1 25.511 26 24.611 26 23.511V11.511ZM24 11.511L16 16.511L8 11.511H24ZM24 23.511H8V13.511L16 18.511L24 13.511V23.511Z" fill="white"/>
<rect x="-31.5" y="-30.989" width="396.982" height="351" rx="11.5" stroke="#33A7F9" stroke-opacity="0.18"/>
</g>
<defs>
<filter id="filter0_f_1_3" x="-658" y="-684" width="905.2" height="911.954" filterUnits="userSpaceOnUse" color-interpolation-filters="sRGB">
<feFlood flood-opacity="0" result="BackgroundImageFix"/>
<feBlend mode="normal" in="SourceGraphic" in2="BackgroundImageFix" result="shape"/>
<feGaussianBlur stdDeviation="158" result="effect1_foregroundBlur_1_3"/>
</filter>
<clipPath id="clip0_1_3">
<rect width="1440" height="5879" fill="white" transform="translate(-205 -4952)"/>
</clipPath>
</defs>
</svg>
