<svg width="34" height="40" viewBox="0 0 34 40" fill="none" xmlns="http://www.w3.org/2000/svg">
<path d="M1.75 37C1.75 37.6904 2.30964 38.25 3 38.25C3.69036 38.25 4.25 37.6904 4.25 37V25.6667C4.25 24.9763 3.69036 24.4167 3 24.4167C2.30964 24.4167 1.75 24.9763 1.75 25.6667V37ZM15.9167 37C15.9167 37.6904 16.4763 38.25 17.1667 38.25C17.857 38.25 18.4167 37.6904 18.4167 37V14.3333C18.4167 13.643 17.857 13.0833 17.1667 13.0833C16.4763 13.0833 15.9167 13.643 15.9167 14.3333V37ZM30.0833 37C30.0833 37.6904 30.643 38.25 31.3333 38.25C32.0237 38.25 32.5833 37.6904 32.5833 37V3C32.5833 2.30964 32.0237 1.75 31.3333 1.75C30.643 1.75 30.0833 2.30964 30.0833 3V37Z" stroke="#33A7F9" stroke-width="2.5" stroke-linecap="round" stroke-linejoin="round"/>
</svg>
