<svg width="85" height="96" viewBox="0 0 85 96" fill="none" xmlns="http://www.w3.org/2000/svg">
<path d="M23.5023 78.5172L22.3451 80.8178L20.3181 80.9442L21.4676 78.6398L23.5023 78.5172Z" fill="#5E5B65"/>
<path d="M21.4676 78.6398L20.3181 80.9442L18.3153 77.923L19.4726 75.6224L21.4676 78.6398Z" fill="#333137"/>
<path d="M23.5026 78.5174L21.4678 78.6399L19.4728 75.6225L21.5037 75.4883L23.5026 78.5174Z" fill="#413F46"/>
<path d="M56.3039 76.6885L55.1466 78.989L53.1158 79.1233L54.273 76.8227L56.3039 76.6885Z" fill="#5E5B65"/>
<path d="M54.2734 76.8227L53.1161 79.1233L51.125 76.0981L52.2745 73.7937L54.2734 76.8227Z" fill="#333137"/>
<path d="M56.304 76.6885L54.2731 76.8227L52.2742 73.7937L54.309 73.6711L56.304 76.6885Z" fill="#413F46"/>
<path d="M11.4347 60.0823L10.2774 62.3828L8.24262 62.5054L9.39602 60.2126L11.4347 60.0823Z" fill="#5E5B65"/>
<path d="M9.39632 60.2126L8.24292 62.5054L6.24797 59.488L7.40525 57.1875L9.39632 60.2126Z" fill="#333137"/>
<path d="M11.4347 60.0823L9.39604 60.2126L7.40497 57.1875L9.43196 57.0611L11.4347 60.0823Z" fill="#413F46"/>
<path d="M20.6403 80.298L6.39108 58.6163L27.1594 16.6887L41.4164 38.3742L20.6403 80.298Z" fill="#E8E8E8" fill-opacity="0.24"/>
<path d="M41.4164 38.3743L27.1594 16.6887L62.2252 14.5506L76.4822 36.2361L41.4164 38.3743Z" fill="#FAFBFD" fill-opacity="0.31"/>
<path d="M76.4783 36.2244L55.5467 78.1677L45.7385 78.7684L45.5517 78.7725L20.6481 80.3018L41.4086 38.3704L76.4783 36.2244Z" fill="#F2F2F2" fill-opacity="0.31"/>
<mask id="mask0_561_204" style="mask-type:luminance" maskUnits="userSpaceOnUse" x="54" y="47" width="9" height="5">
<path d="M61.7233 50.9145L62.1831 51.6106C60.8427 49.5808 58.1686 48.4317 54.4687 48.657L54.0089 47.9609C57.7089 47.7357 60.3868 48.877 61.7233 50.9145Z" fill="white"/>
</mask>
<g mask="url(#mask0_561_204)">
<path d="M54.4691 48.6571L54.0093 47.9611C56.9078 47.7833 59.1885 48.4542 60.6798 49.7329L61.1279 50.4133C59.6365 49.1347 57.3637 48.4676 54.4574 48.6416L54.4691 48.6571Z" fill="#807F83"/>
<path d="M61.128 50.4132L60.6682 49.7172C61.0724 50.0576 61.4242 50.4558 61.7121 50.899L62.1718 51.595C61.8807 51.1543 61.5293 50.7565 61.128 50.4132Z" fill="#807F83"/>
</g>
<mask id="mask1_561_204" style="mask-type:luminance" maskUnits="userSpaceOnUse" x="33" y="47" width="22" height="23">
<path d="M34.9566 69.5108L34.5007 68.807C33.1837 66.8084 33.1771 63.937 34.7965 60.671C38.0663 54.1158 46.6518 48.4037 54.0089 47.961L54.4687 48.657C47.1155 49.1114 38.5183 54.8079 35.2446 61.371C33.6213 64.6252 33.6435 67.5044 34.9566 69.5108Z" fill="white"/>
</mask>
<g mask="url(#mask1_561_204)">
<path d="M34.957 69.5108L34.5011 68.807C33.1841 66.8084 33.1775 63.937 34.7969 60.6711C36.59 57.3249 39.1814 54.4731 42.3411 52.3687L42.8086 53.0686C39.643 55.1719 37.0451 58.0236 35.245 61.371C33.6217 64.6253 33.6361 67.5006 34.9492 69.507L34.957 69.5108Z" fill="#807F83"/>
<path d="M42.808 53.0686L42.3404 52.3687C45.7707 49.8918 49.7975 48.3707 54.0087 47.961L54.4684 48.6571C50.2601 49.0713 46.2366 50.5935 42.808 53.0686Z" fill="#807F83"/>
</g>
<path d="M53.7574 68.447C61.2729 63.5048 65.0432 55.9672 62.1787 51.6113C59.3143 47.2554 50.8997 47.7307 43.3842 52.6729C35.8688 57.6151 32.0985 65.1527 34.963 69.5086C37.8274 73.8645 46.242 73.3892 53.7574 68.447Z" fill="#CBC9CF" fill-opacity="0.22"/>
<path d="M52.8974 67.1385C59.1683 63.0147 62.3149 56.7264 59.9257 53.0931C57.5364 49.4599 50.516 49.8575 44.2451 53.9813C37.9742 58.1051 34.8275 64.3935 37.2168 68.0267C39.606 71.66 46.6265 71.2623 52.8974 67.1385Z" fill="#2B3E4F"/>
<path d="M52.5222 51.643C58.6577 51.2714 61.4319 55.4164 58.7213 60.8895C58.074 62.1612 57.2599 63.3409 56.3006 64.3974C57.6706 63.0901 58.8132 61.5637 59.6813 59.8808C62.3997 54.4311 59.6216 50.255 53.494 50.6305C48.7202 50.9229 43.3226 53.8695 39.8751 57.7402C43.3153 54.3714 48.1803 51.9078 52.5222 51.643Z" fill="#18222B"/>
<path d="M12.9985 59.4622C12.4703 60.521 11.4821 60.5531 10.8703 59.5965C10.5465 59.0438 10.3574 58.4226 10.3183 57.7832C10.2791 57.1437 10.3911 56.5041 10.6451 55.916L22.6837 31.7816C23.208 30.7306 24.1612 30.6713 24.808 31.655C25.1318 32.2063 25.3213 32.826 25.3611 33.464C25.4009 34.1021 25.2899 34.7406 25.0371 35.3278L12.9985 59.4622Z" fill="#F2F2F2" fill-opacity="0.27"/>
<path d="M16.5638 64.9837C16.0396 66.0347 15.0474 66.0746 14.4357 65.118C14.1131 64.5654 13.9253 63.9445 13.8875 63.3057C13.8497 62.6669 13.963 62.0282 14.2182 61.4414L26.2568 37.307C26.7811 36.2559 27.7732 36.2161 28.3811 37.1804C28.7057 37.7323 28.8947 38.3534 28.9325 38.9926C28.9703 39.6317 28.8558 40.2707 28.5986 40.857L16.5638 64.9837Z" fill="#F2F2F2" fill-opacity="0.27"/>
<path d="M20.3044 70.6608C19.7801 71.7118 18.788 71.7516 18.1801 70.7873C17.8563 70.2346 17.6672 69.6134 17.628 68.9739C17.5889 68.3345 17.7009 67.6949 17.9549 67.1068L29.9935 42.9724C30.5177 41.9214 31.506 41.8893 32.1177 42.8458C32.4416 43.3986 32.6307 44.0198 32.6698 44.6592C32.709 45.2986 32.597 45.9382 32.343 46.5263L20.3044 70.6608Z" fill="#F2F2F2" fill-opacity="0.27"/>
<path opacity="0.3" d="M10.6301 56.9393L22.6688 32.8049C23.193 31.7538 24.1851 31.714 24.793 32.6783C25.0903 33.1591 25.2719 33.7024 25.3237 34.2653C25.4423 33.3598 25.2537 32.4407 24.7882 31.655C24.1414 30.6713 23.1882 30.7306 22.6639 31.7816L10.6253 55.916C10.3356 56.5746 10.2327 57.3002 10.3277 58.0134C10.3661 57.6407 10.4684 57.2773 10.6301 56.9393Z" fill="#D9D9D9"/>
<path opacity="0.3" d="M14.2191 62.4335L26.2578 38.2991C26.782 37.2481 27.7741 37.2082 28.382 38.1726C28.6737 38.654 28.8525 39.1952 28.9049 39.7557C29.0231 38.8628 28.8387 37.9561 28.3811 37.1804C27.7343 36.1967 26.7811 36.2559 26.2568 37.307L14.2182 61.4414C13.9258 62.0979 13.8201 62.8223 13.9128 63.5349C13.9507 63.1529 14.0543 62.7803 14.2191 62.4335Z" fill="#D9D9D9"/>
<path opacity="0.3" d="M17.9014 68.208L29.94 44.0735C30.4643 43.0225 31.4564 42.9827 32.0682 43.9392C32.3937 44.4679 32.5815 45.0696 32.6145 45.6896C32.7968 44.7042 32.6132 43.6861 32.0982 42.8264C31.4476 41.8505 30.4982 41.9019 29.974 42.953L17.9354 67.0874C17.6619 67.6959 17.5525 68.3653 17.6182 69.0292C17.6739 68.7436 17.7692 68.4672 17.9014 68.208Z" fill="#D9D9D9"/>
<path d="M37.9019 45.4005L23.6526 23.7189L23.7381 23.5476L37.999 45.2253L37.9019 45.4005Z" fill="#9B9A9E"/>
<path d="M73.0648 43.0872L72.9677 43.2623L37.9019 45.4005L37.999 45.2253L73.0648 43.0872Z" fill="#CBC9CF" fill-opacity="0.22"/>
<path d="M48.1661 73.9026L47.9755 73.9145L22.9123 75.4518L22.8269 75.6231L47.89 74.0858L45.5522 78.7725L45.7389 78.7684L48.0807 74.0739L57.8966 73.4771L57.982 73.3058L48.1661 73.9026Z" fill="#CBC9CF" fill-opacity="0.22"/>
<path d="M50.7746 43.2561L40.0366 43.9083L42.3977 39.1748L53.1357 38.5227L50.7746 43.2561Z" fill="#CBC9CF" fill-opacity="0.22"/>
<path d="M45.7402 39.0822L42.4994 39.2837L40.4256 43.4411L43.6626 43.2474L45.7402 39.0822Z" fill="#807F83"/>
<path d="M45.8803 39.0743L43.8027 43.2394L50.8447 42.8048L52.9184 38.6474L45.8803 39.0743Z" fill="#807F83"/>
<path d="M62.4 38.7591L60.2952 38.8856L60.3923 38.6909L62.4971 38.5644L62.4 38.7591Z" fill="#BBBBBB"/>
<path d="M61.8485 39.8645L59.7398 39.9988L59.8408 39.7964L61.9456 39.6699L61.8485 39.8645Z" fill="#BBBBBB"/>
<path d="M61.2155 41.1336L59.1068 41.2679L59.2078 41.0654L61.3126 40.9389L61.2155 41.1336Z" fill="#BBBBBB"/>
<path d="M60.6638 42.239L58.5551 42.3733L58.6561 42.1709L60.7609 42.0444L60.6638 42.239Z" fill="#BBBBBB"/>
<path d="M55.6775 39.2167L53.5727 39.3432L53.6698 39.1486L55.7746 39.0221L55.6775 39.2167Z" fill="#BBBBBB"/>
<path d="M55.1256 40.3223L53.0208 40.4488L53.1179 40.2542L55.2227 40.1277L55.1256 40.3223Z" fill="#BBBBBB"/>
<path d="M54.4929 41.5912L52.3881 41.7177L52.4852 41.5231L54.59 41.3966L54.4929 41.5912Z" fill="#BBBBBB"/>
<path d="M53.9411 42.6968L51.8325 42.8311L51.9334 42.6287L54.0382 42.5022L53.9411 42.6968Z" fill="#BBBBBB"/>
<mask id="mask2_561_204" style="mask-type:luminance" maskUnits="userSpaceOnUse" x="58" y="38" width="2" height="2">
<path d="M59.3074 39.1315L59.7438 39.7964C59.6101 39.632 59.4353 39.5058 59.237 39.4308C59.0388 39.3559 58.8242 39.3347 58.6151 39.3695L58.1787 38.7046C58.3878 38.6707 58.602 38.6923 58.8001 38.7672C58.9982 38.8421 59.1732 38.9677 59.3074 39.1315Z" fill="white"/>
</mask>
<g mask="url(#mask2_561_204)">
<path d="M58.6155 39.3696L58.1791 38.7047C58.3498 38.6819 58.5233 38.6932 58.6896 38.7377C58.8559 38.7823 59.0117 38.8594 59.1481 38.9645L59.5884 39.6216C59.3103 39.412 58.9604 39.3213 58.6155 39.3696Z" fill="#807F83"/>
<path d="M59.5884 39.6214L59.1482 38.9642C59.2082 39.013 59.2618 39.0692 59.3078 39.1314L59.7442 39.7963L59.5884 39.6214Z" fill="#BBBBBB"/>
</g>
<mask id="mask3_561_204" style="mask-type:luminance" maskUnits="userSpaceOnUse" x="55" y="38" width="4" height="5">
<path d="M55.7699 42.4032L55.3335 41.7383C55.2366 41.5545 55.1898 41.3484 55.1978 41.1407C55.2058 40.9331 55.2683 40.7312 55.3791 40.5554C55.6721 40.0474 56.0814 39.6161 56.5735 39.297C57.0657 38.978 57.6265 38.7803 58.2099 38.7202L58.6463 39.3851C58.0669 39.4516 57.5114 39.6538 57.025 39.9754C56.5385 40.297 56.1348 40.7289 55.8466 41.2359C55.733 41.4068 55.6661 41.6045 55.6526 41.8093C55.6391 42.0141 55.6796 42.2189 55.7699 42.4032Z" fill="white"/>
</mask>
<g mask="url(#mask3_561_204)">
<path d="M55.7703 42.4032L55.3339 41.7383C55.237 41.5545 55.1902 41.3484 55.1982 41.1408C55.2062 40.9331 55.2687 40.7312 55.3795 40.5554C55.6413 40.0677 56.019 39.6517 56.4795 39.3444L56.9159 40.0093C56.4547 40.3158 56.0768 40.7319 55.8159 41.2203C55.7043 41.3958 55.6412 41.5978 55.6332 41.8056C55.6252 42.0134 55.6725 42.2197 55.7703 42.4032Z" fill="#807F83"/>
<path d="M56.9155 40.0093L56.4791 39.3443C56.9896 38.9848 57.5874 38.7692 58.2099 38.7202L58.6463 39.3851C58.0331 39.4441 57.4466 39.6649 56.9466 40.0248L56.9155 40.0093Z" fill="#BBBBBB"/>
</g>
<path d="M58.6151 39.3696C59.6811 39.2986 60.176 40.0218 59.6983 40.9794C59.4118 41.4877 59.0085 41.9207 58.5217 42.2425C58.035 42.5643 57.4786 42.7657 56.8987 42.8302C55.8249 42.8973 55.3417 42.1702 55.8155 41.2204C56.1036 40.7134 56.5074 40.2815 56.9938 39.9599C57.4803 39.6384 58.0358 39.4361 58.6151 39.3696Z" fill="#676768"/>
<path d="M72.9104 40.7061L62.293 41.3504L64.2503 37.4266L74.8677 36.7823L72.9104 40.7061Z" fill="#025074"/>
<path d="M69.7609 42.421L72.1264 42.2787L72.7633 41.0019L70.3978 41.1442L69.7609 42.421Z" fill="#BBBBBB"/>
<path d="M70.0861 41.164L67.6273 41.318L66.9943 42.587L69.4492 42.4408L70.0861 41.164Z" fill="#BBBBBB"/>
<path d="M64.2479 42.7531L66.6835 42.6068L67.3165 41.3378L64.8809 41.4841L64.2479 42.7531Z" fill="#BBBBBB"/>
<path d="M64.5697 41.5039L62.142 41.654L61.509 42.923L63.9367 42.7729L64.5697 41.5039Z" fill="#BBBBBB"/>
<path d="M64.2029 40.3487C63.5688 40.3921 63.2804 39.9566 63.5678 39.3805C63.7396 39.077 63.9805 38.8183 64.271 38.6253C64.5615 38.4324 64.8934 38.3106 65.2398 38.27C65.8817 38.2305 66.1623 38.6621 65.8788 39.2304C65.7081 39.5363 65.4671 39.7972 65.1757 39.9916C64.8843 40.1861 64.5509 40.3084 64.2029 40.3487ZM65.1039 38.5425C64.8477 38.5729 64.6024 38.6632 64.3876 38.806C64.1727 38.9488 63.9946 39.1402 63.8674 39.3646C63.6577 39.785 63.8681 40.1039 64.3388 40.0762C64.596 40.0473 64.8427 39.9582 65.0589 39.816C65.2751 39.6738 65.4547 39.4826 65.5831 39.2579C65.824 38.8531 65.6058 38.5303 65.1039 38.5425Z" fill="white" fill-opacity="0.49"/>
<path d="M64.7975 39.6049C64.7697 39.6555 64.7301 39.6986 64.682 39.7305C64.6339 39.7624 64.5788 39.7822 64.5214 39.7881C64.4125 39.7921 64.3735 39.7143 64.4162 39.6286L64.7153 39.0292C64.743 38.9786 64.7827 38.9355 64.8307 38.9036C64.8788 38.8717 64.9339 38.852 64.9913 38.846C65.1003 38.8421 65.1393 38.9198 65.0965 39.0055L64.7975 39.6049Z" fill="white" fill-opacity="0.49"/>
<path d="M73.6676 38.6627L73.7258 38.4292L73.4145 38.449C73.4113 38.3845 73.3926 38.3218 73.3599 38.2662L73.6009 37.9975L73.4296 37.912C73.4296 37.912 73.4296 37.912 73.3713 37.9315L73.0446 38.1381C72.9733 38.1142 72.8976 38.1063 72.8228 38.1149L72.8109 37.8659L72.5269 37.9285C72.519 37.9353 72.5125 37.9436 72.5078 37.953C72.5032 37.9623 72.5004 37.9725 72.4998 37.983L72.36 38.2632C72.2677 38.3073 72.1781 38.3567 72.0916 38.4113L71.8581 38.2948C71.8475 38.2934 71.8367 38.2944 71.8266 38.2978C71.8165 38.3012 71.8073 38.3068 71.7997 38.3143L71.5548 38.5325L71.5354 38.5714L71.6562 38.758C71.609 38.8348 71.5688 38.9155 71.5358 38.9994L71.1935 39.1398C71.1852 39.1462 71.1784 39.1544 71.1737 39.1639C71.169 39.1733 71.1665 39.1837 71.1664 39.1943L71.1082 39.4278L71.4195 39.408C71.4241 39.4703 71.4442 39.5305 71.478 39.583L71.237 39.8517L71.2137 39.8985L71.385 39.9839C71.385 39.9839 71.385 39.9839 71.4317 40.0072L71.7506 39.7968C71.8234 39.8126 71.8978 39.8204 71.9724 39.8199L71.9843 40.0689L72.2799 40.0025C72.287 39.9969 72.2928 39.9898 72.2968 39.9818C72.3008 39.9737 72.303 39.9648 72.3032 39.9558L72.4469 39.6677C72.5389 39.6286 72.6274 39.5817 72.7113 39.5274L72.9449 39.6439L73.1898 39.4258L73.069 39.2391C73.1162 39.1624 73.1564 39.0816 73.1894 38.9978L73.5317 38.8574C73.5575 38.8754 73.5894 38.8825 73.6204 38.877C73.6514 38.8715 73.679 38.8539 73.697 38.8281C73.715 38.8023 73.7221 38.7703 73.7166 38.7393C73.7111 38.7083 73.6935 38.6808 73.6676 38.6627ZM72.2364 39.2905C71.9408 39.3569 71.7539 39.2248 71.812 38.9913C71.8633 38.8516 71.9496 38.7274 72.0626 38.6306C72.1756 38.5338 72.3115 38.4675 72.4574 38.4382C72.753 38.3718 72.9399 38.5039 72.8818 38.7374C72.8305 38.8771 72.7442 39.0013 72.6312 39.0981C72.5182 39.195 72.3823 39.2612 72.2364 39.2905Z" fill="white" fill-opacity="0.49"/>
<path d="M66.2721 39.514L66.6383 40.0662C66.656 40.0929 66.6804 40.1145 66.7091 40.1289C66.7378 40.1432 66.7698 40.1497 66.8018 40.1477C66.8852 40.1429 66.9657 40.116 67.0352 40.0697L67.9956 39.4307C68.1512 39.3333 68.2288 39.1776 68.1665 39.0881C68.1042 38.9987 67.9563 38.9833 67.7852 39.1118L67.5402 39.2716L67.9286 38.4931C68.0063 38.3374 67.9322 38.2129 67.761 38.2248C67.6642 38.2362 67.5714 38.2704 67.4903 38.3246C67.4092 38.3788 67.3421 38.4514 67.2944 38.5365L66.9061 39.315L66.8126 39.1711C66.7502 39.0817 66.5946 39.0624 66.4313 39.1948C66.268 39.3273 66.2175 39.4285 66.2721 39.514Z" fill="white" fill-opacity="0.49"/>
<path d="M70.7807 38.7005L70.4261 38.1639C70.4116 38.1383 70.3898 38.1176 70.3634 38.1044C70.3371 38.0913 70.3074 38.0863 70.2782 38.0901C70.1958 38.0905 70.1161 38.1195 70.0526 38.172L69.1272 38.7799C68.9833 38.8734 68.9095 39.0213 68.968 39.0991C69.0264 39.1768 69.1704 39.2 69.3298 39.0754L69.5709 38.9234L69.1825 39.7019C69.1087 39.8499 69.1789 39.9626 69.3462 39.9586C69.4382 39.9477 69.5265 39.9156 69.6041 39.8649C69.6816 39.8142 69.7464 39.7463 69.7933 39.6663L70.1623 38.9267L70.248 39.0667C70.3064 39.1445 70.4504 39.1677 70.6098 39.043C70.7692 38.9184 70.8236 38.7705 70.7807 38.7005Z" fill="white" fill-opacity="0.49"/>
</svg>
